<svg version="1.1" id="Layer_1" xmlns="http://www.w3.org/2000/svg" xmlns:xlink="http://www.w3.org/1999/xlink" x="0px" y="0px"
	 width="100%" viewBox="0 0 1792 576" enable-background="new 0 0 1792 576" xml:space="preserve">

<path fill="#2A4D7A" opacity="1.000000" stroke="none" 
	d="
M138.491364,239.804932 
	C138.395279,235.834366 138.299194,231.863785 138.440979,227.294586 
	C138.541046,226.139343 138.403259,225.582733 138.265488,225.026108 
	C138.236115,221.646164 138.206741,218.266220 138.458923,214.101791 
	C138.740494,196.668564 138.740494,180.019821 138.740494,162.413925 
	C140.551773,163.566925 141.255646,163.928482 141.861160,164.412964 
	C162.290817,180.759918 182.666168,197.175201 203.162018,213.438675 
	C208.815094,217.924362 214.823364,221.962433 220.668655,226.205902 
	C220.668655,226.205902 220.780350,226.212036 220.850586,226.592865 
	C231.012054,235.325714 241.061020,243.729416 251.202881,252.019485 
	C275.756561,272.089935 300.342590,292.120941 324.960266,312.112793 
	C326.443970,313.317719 328.319183,314.040588 330.012207,314.987762 
	C330.012207,314.987762 330.000000,315.000000 330.185730,315.278625 
	C331.915283,316.336060 333.459106,317.114899 335.129059,318.213684 
	C341.287384,322.372681 347.087341,326.662537 353.417206,329.923798 
	C359.728729,333.175537 366.394928,336.065063 373.233643,337.871002 
	C379.437256,339.509247 386.082550,339.474823 392.533112,340.177856 
	C392.600037,340.342133 392.666931,340.506439 392.774597,341.330933 
	C396.138672,345.758942 400.635773,344.265411 404.493927,343.895966 
	C405.607513,343.789337 406.317413,339.467773 407.559753,337.145142 
	C409.450348,338.804565 410.995026,341.759644 412.536530,341.757965 
	C419.781952,341.750122 427.131042,341.515167 434.243469,340.244049 
	C442.140839,338.832703 449.821991,336.211517 457.714111,334.385742 
	C457.956543,334.803955 458.082092,334.953552 458.207672,335.103149 
	C457.191071,335.853912 456.174469,336.604706 454.606873,337.638000 
	C453.187225,338.381836 452.221710,338.721222 451.464355,339.322723 
	C439.254303,349.020905 427.051239,358.728149 414.885376,368.481750 
	C393.252655,385.825104 371.713684,403.286438 349.981415,420.503937 
	C344.498444,424.847839 339.134308,430.280029 331.157990,429.007294 
	C327.800110,428.471497 324.609924,426.884766 321.343536,425.775757 
	C321.343536,425.775757 321.226685,425.759247 321.153442,425.378906 
	C320.163391,424.040100 319.341522,422.963318 318.315887,422.140533 
	C296.549438,404.679596 274.737823,387.274933 252.980804,369.802307 
	C225.789352,347.965271 198.643250,326.071838 171.448334,304.239166 
	C170.749420,303.678070 169.710953,303.539978 168.830841,303.204651 
	C168.830841,303.204651 168.923386,303.055695 168.903519,302.764648 
	C168.465561,301.780182 168.169098,300.964111 167.611649,300.411133 
	C152.183640,285.107758 143.336777,266.626770 140.632385,245.101151 
	C140.402939,243.274902 139.227386,241.567535 138.491364,239.804932 
z"/>
<path fill="#32527D" opacity="1.000000" stroke="none" 
	d="
M1655.317017,341.444641 
	C1662.638916,363.752533 1669.275146,385.896088 1680.579590,407.035400 
	C1678.077271,407.282684 1676.644775,407.546631 1675.212158,407.546906 
	C1660.216431,407.549805 1645.220093,407.439636 1630.225098,407.530548 
	C1626.291626,407.554382 1624.562500,406.216248 1624.336548,402.079712 
	C1623.525879,387.235596 1619.349121,373.059479 1615.357300,358.845459 
	C1612.714722,349.436066 1610.329712,339.951538 1607.986084,330.461945 
	C1606.357788,323.868958 1604.620605,322.456177 1597.787476,322.462677 
	C1570.295776,322.488831 1542.803345,322.556702 1515.312866,322.370117 
	C1510.569702,322.337952 1508.395508,323.462311 1507.110962,328.546204 
	C1503.214966,343.966095 1498.163818,359.092865 1494.210327,374.500000 
	C1491.783081,383.959076 1490.345337,393.692841 1488.884399,403.366852 
	C1488.421387,406.432770 1487.733276,407.771149 1484.422363,407.671936 
	C1477.444580,407.462952 1470.456055,407.608429 1462.680420,407.608429 
	C1463.005005,405.794159 1463.011230,404.222809 1463.569824,402.881470 
	C1467.884155,392.521393 1472.635376,382.330750 1476.604492,371.842804 
	C1480.937866,360.392944 1484.761719,348.739166 1488.473999,337.068176 
	C1493.438843,321.459595 1498.074585,305.746490 1502.866577,290.082825 
	C1507.812866,273.914459 1512.945068,257.800598 1517.682617,241.571472 
	C1521.905029,227.106949 1525.963135,212.582977 1529.594482,197.961258 
	C1532.189575,187.511871 1534.037109,176.872375 1536.056396,166.286819 
	C1536.795776,162.411240 1538.503418,160.652771 1542.746216,160.694641 
	C1561.572510,160.880386 1580.402588,160.849945 1599.229736,160.710785 
	C1603.512451,160.679108 1604.903564,162.142120 1605.919312,166.528015 
	C1611.241333,189.507172 1616.908325,212.415985 1622.992432,235.205933 
	C1627.320435,251.418259 1632.411865,267.430176 1637.318970,283.483704 
	C1643.194458,302.704834 1649.236572,321.875031 1655.317017,341.444641 
M1585.480469,307.824158 
	C1589.145020,307.801331 1592.810425,307.822693 1596.473633,307.741302 
	C1599.260620,307.679413 1600.425781,306.316467 1599.588135,303.508789 
	C1597.652466,297.020294 1595.809204,290.503143 1593.791504,284.040375 
	C1589.102783,269.022339 1584.530029,253.963821 1579.546753,239.043137 
	C1573.084717,219.695023 1566.299927,200.454147 1559.552246,181.202850 
	C1558.964111,179.525085 1557.617920,178.113037 1555.937256,175.517441 
	C1552.437256,185.096542 1549.211548,193.308914 1546.432495,201.669754 
	C1541.783569,215.655731 1537.384644,229.725403 1532.944336,243.779999 
	C1526.623779,263.786713 1520.328613,283.801666 1514.109375,303.839996 
	C1513.237915,306.648193 1514.600342,307.566986 1517.542114,307.566162 
	C1539.857056,307.559723 1562.171997,307.721100 1585.480469,307.824158 
z"/>
<path fill="#2E507C" opacity="1.000000" stroke="none" 
	d="
M1147.995972,400.918549 
	C1128.928223,408.526154 1109.397095,410.801910 1089.447754,409.538239 
	C1070.882812,408.362305 1053.041626,404.064575 1036.515015,395.248657 
	C1035.129761,394.509674 1033.492920,392.261047 1033.658447,390.922211 
	C1034.635742,383.017548 1036.071655,375.167389 1037.469482,367.319550 
	C1037.652954,366.289551 1038.501099,365.377960 1039.237915,364.060150 
	C1040.126343,364.798004 1040.898438,365.162598 1041.248291,365.770355 
	C1049.524658,380.145111 1062.767090,389.071167 1077.780640,393.404968 
	C1091.679932,397.417114 1106.680664,397.871185 1120.452026,390.103088 
	C1135.888794,381.395416 1139.208618,358.497192 1135.531616,345.949219 
	C1130.652832,329.299774 1117.917480,318.817871 1105.680054,308.173828 
	C1091.158325,295.542725 1075.748901,283.935486 1061.143921,271.395721 
	C1052.001709,263.546356 1044.595337,254.041061 1040.431763,242.527618 
	C1036.838623,232.591156 1035.491211,222.561142 1037.458740,211.763596 
	C1041.018921,192.225403 1052.945557,180.103638 1069.851440,171.770020 
	C1092.518677,160.596237 1116.389648,158.050354 1141.070068,162.507050 
	C1150.863403,164.275497 1160.498657,166.926498 1170.298340,168.649323 
	C1174.910156,169.460114 1175.507446,171.897034 1174.811279,175.584854 
	C1173.467041,182.705444 1172.051147,189.812485 1170.494629,197.799286 
	C1169.260498,197.173859 1167.313965,196.832275 1166.543823,195.694412 
	C1160.670776,187.017685 1151.972778,182.713165 1142.691406,178.659836 
	C1132.301392,174.122375 1121.617065,173.873688 1110.880859,174.886154 
	C1091.220947,176.740189 1079.731323,190.946091 1082.960693,212.847137 
	C1085.017822,226.798309 1094.325439,235.932571 1103.960571,244.584518 
	C1112.853882,252.570206 1122.521729,259.711884 1132.023071,266.997437 
	C1148.049805,279.286774 1163.539429,292.033417 1174.914185,309.101562 
	C1185.322266,324.719177 1187.474487,342.162079 1184.205444,359.748718 
	C1180.752319,378.325165 1168.466431,391.098022 1151.499756,399.258728 
	C1150.449707,399.763794 1149.381348,400.230835 1147.995972,400.918549 
z"/>
<path fill="#30517C" opacity="1.000000" stroke="none" 
	d="
M678.319763,380.921326 
	C675.753052,370.351715 673.541626,360.114166 670.670776,350.065002 
	C665.697205,332.655731 660.342224,315.355011 655.096619,298.024078 
	C650.146118,281.667908 645.257263,265.291412 640.109436,248.997086 
	C634.406433,230.945358 628.726257,212.876831 622.484741,195.008240 
	C618.568848,183.797760 613.637695,172.941956 608.916748,161.323380 
	C609.967957,161.146896 611.304626,160.733932 612.643616,160.726608 
	C627.637817,160.644623 642.633667,160.721222 657.625977,160.519287 
	C661.242676,160.470581 662.553284,161.837128 663.089661,165.275803 
	C667.458252,193.279434 675.830261,220.263046 684.124573,247.270752 
	C693.389038,277.437378 702.291931,307.716461 711.753540,337.820496 
	C716.877502,354.123566 722.804504,370.175415 728.463928,386.307404 
	C729.125977,388.194702 730.391907,389.870117 731.377991,391.643707 
	C731.961731,391.645081 732.545471,391.646423 733.129211,391.647797 
	C735.920288,384.165497 738.984497,376.771606 741.441223,369.181122 
	C745.616577,356.280975 749.331299,343.232513 753.382690,330.291199 
	C758.386902,314.306213 763.664062,298.406036 768.588989,282.397095 
	C773.610291,266.075012 778.476074,249.702316 783.174561,233.284409 
	C788.468811,214.784836 793.607117,196.238495 798.554199,177.643555 
	C799.520081,174.012924 799.343018,170.069855 799.614563,166.265289 
	C799.879089,162.560532 801.292847,160.496918 805.513672,160.668457 
	C812.071106,160.934982 818.647400,160.738876 826.088623,160.738876 
	C823.043579,167.666702 820.301331,173.272232 818.088074,179.079407 
	C814.076965,189.603958 810.117249,200.162292 806.614990,210.863266 
	C801.248291,227.260529 796.255310,243.780716 791.164429,260.267487 
	C787.204712,273.091187 783.364380,285.951721 779.422058,298.780884 
	C775.046143,313.021088 770.345398,327.167847 766.283813,341.496399 
	C762.307983,355.522217 758.816406,369.691376 755.398438,383.866577 
	C753.845215,390.308472 752.829102,396.894562 751.873413,403.459503 
	C751.416626,406.597046 750.018066,407.624054 746.958191,407.612885 
	C727.298950,407.541077 707.638977,407.558807 687.979736,407.646881 
	C684.511963,407.662415 683.034485,406.392548 682.503906,402.815704 
	C681.435242,395.611053 679.787292,388.492310 678.319763,380.921326 
z"/>
<path fill="#30507C" opacity="1.000000" stroke="none" 
	d="
M1248.198730,160.834839 
	C1306.500854,160.813690 1364.329468,160.839828 1422.157593,160.677582 
	C1427.029297,160.663925 1428.920654,162.264282 1428.471069,167.041031 
	C1428.237915,169.520187 1428.216064,172.052002 1428.424316,174.532700 
	C1428.790527,178.897644 1427.120605,179.891556 1422.835815,179.293579 
	C1411.679199,177.736603 1400.469238,176.465530 1389.243042,175.533966 
	C1380.789673,174.832489 1372.268555,174.985519 1363.796875,174.453491 
	C1359.801636,174.202576 1357.843994,175.621704 1357.557373,179.583908 
	C1356.848755,189.375153 1355.481445,199.160110 1355.444946,208.951569 
	C1355.265015,257.279602 1355.203125,305.610870 1355.617920,353.936554 
	C1355.739014,368.050232 1357.557129,382.149963 1358.632080,396.253418 
	C1358.707031,397.235046 1359.021606,398.210144 1359.311401,399.161804 
	C1361.845947,407.484344 1361.851807,407.481812 1353.340332,407.486664 
	C1339.508179,407.494598 1325.675171,407.424622 1311.844238,407.561859 
	C1307.865601,407.601318 1307.204956,406.161499 1307.790161,402.401215 
	C1309.499390,391.417175 1311.861206,380.373993 1311.986816,369.331512 
	C1312.598633,315.530609 1312.685669,261.722321 1312.647827,207.916855 
	C1312.640869,198.136642 1311.145508,188.360550 1310.427734,178.575928 
	C1310.211670,175.630600 1308.791748,174.468887 1305.916626,174.623962 
	C1287.640991,175.609665 1269.362915,176.554413 1251.086304,177.522507 
	C1250.591431,177.548706 1250.095093,177.655746 1249.612061,177.776154 
	C1239.446289,180.309753 1239.446655,180.311188 1239.540283,170.034790 
	C1239.543335,169.701508 1239.548706,169.368240 1239.551025,169.034943 
	C1239.610352,160.786194 1239.610352,160.786194 1248.198730,160.834839 
M1353.988281,192.672226 
	C1353.988281,190.663345 1353.988281,188.654465 1353.988281,186.645584 
	C1353.534058,186.668076 1353.079834,186.690582 1352.625610,186.713074 
	C1352.625610,251.572205 1352.625610,316.431335 1352.625610,381.290436 
	C1353.079224,381.290833 1353.532959,381.291229 1353.986572,381.291626 
	C1353.986572,318.738525 1353.986572,256.185425 1353.988281,192.672226 
z"/>
<path fill="#2F4F7B" opacity="1.000000" stroke="none" 
	d="
M905.543213,375.184662 
	C906.165100,366.292084 907.266602,357.857269 907.298523,349.418396 
	C907.464294,305.609070 907.643616,261.795746 907.191650,217.990280 
	C907.031006,202.415771 905.165466,186.854645 903.908081,171.301178 
	C903.755676,169.415222 902.440979,167.646667 901.836548,165.768478 
	C900.846069,162.690582 901.197327,160.643600 905.285034,160.658508 
	C920.609619,160.714432 935.935120,160.627640 951.259644,160.506012 
	C955.113586,160.475449 956.121338,161.928757 954.390137,165.365662 
	C953.876953,166.384415 953.236328,167.453140 953.130005,168.545288 
	C951.906372,181.115326 949.943604,193.683075 949.772888,206.273041 
	C949.240173,245.573593 948.960327,284.888794 949.443420,324.187714 
	C949.737610,348.115051 951.543152,372.027069 952.868713,395.934937 
	C953.065552,399.484833 954.359619,402.973877 955.280457,407.092133 
	C953.272827,407.261200 951.686035,407.507935 950.098877,407.510864 
	C935.440063,407.537994 920.779602,407.403595 906.123291,407.595093 
	C901.879150,407.650513 901.088196,406.244629 901.770691,402.262421 
	C903.283875,393.433044 904.306641,384.519653 905.543213,375.184662 
z"/>
<path fill="#87AAD1" opacity="1.000000" stroke="none" 
	d="
M474.016357,323.048828 
	C472.861237,323.203003 471.706909,323.405212 470.549438,323.425049 
	C470.451294,323.426727 470.230011,322.209015 470.237915,321.559906 
	C470.440277,304.929443 470.693054,288.299561 470.876190,271.668915 
	C470.980713,262.178986 471.074188,252.687119 470.998871,243.197495 
	C470.909149,231.893570 470.503387,220.590408 470.566376,209.288757 
	C470.576782,207.416260 471.809204,204.973984 473.277222,203.774429 
	C489.859589,190.224335 506.596039,176.862778 523.309509,163.473526 
	C523.659973,163.192780 524.228455,163.184250 525.384644,162.848495 
	C525.860779,165.290665 526.699219,167.621368 526.710388,169.956024 
	C526.811401,191.103897 526.771118,212.252472 526.751099,233.400818 
	C526.750488,234.048828 526.520203,234.696625 525.858887,235.397598 
	C525.196716,234.311066 525.072571,233.171463 524.964966,231.560150 
	C524.981445,224.609619 524.981445,218.130814 524.981445,211.652008 
	C524.318359,211.650421 523.655273,211.648834 522.992188,211.647247 
	C522.992188,213.998123 523.409851,216.452560 522.860718,218.667282 
	C522.417053,220.456909 521.142883,222.880371 519.655701,223.419922 
	C514.421509,225.318924 509.007141,226.913849 503.531342,227.912079 
	C493.797424,229.686539 483.996735,230.231277 473.972778,226.270325 
	C473.972778,234.217865 473.972778,241.596893 473.690186,249.281525 
	C473.579407,255.704971 473.751282,261.822845 473.662354,268.235443 
	C473.555084,271.654114 473.708679,274.778046 473.611816,278.197632 
	C472.967255,286.005859 472.573181,293.518402 472.136475,301.446960 
	C472.125397,303.256836 472.156952,304.650665 472.143707,306.506104 
	C472.069885,310.446503 471.809875,313.944885 472.102570,317.396362 
	C472.265778,319.320770 473.348206,321.167236 474.016357,323.048828 
z"/>
<path fill="#85A9D0" opacity="1.000000" stroke="none" 
	d="
M458.597046,335.009583 
	C458.082092,334.953552 457.956543,334.803955 457.853729,333.947937 
	C457.837738,330.845245 457.798981,328.449036 457.834229,325.586517 
	C457.860687,318.433746 457.813141,311.747284 457.835388,304.661438 
	C457.605774,302.173096 457.306335,300.084106 457.016785,297.545898 
	C457.014832,294.399445 457.002991,291.702148 456.999817,288.535858 
	C457.008453,281.544769 457.008453,275.022705 457.008453,269.079071 
	C452.915955,269.436127 449.721954,269.911407 446.522217,269.953491 
	C439.600769,270.044495 433.044617,270.317230 426.271881,273.260345 
	C421.177551,275.474121 414.570099,274.205902 408.008820,274.517517 
	C408.008820,277.153748 408.008820,280.581146 408.005707,284.452515 
	C407.565887,287.631134 407.129181,290.365753 406.692474,293.100403 
	C406.428528,289.704498 406.059875,286.312744 405.924500,282.911713 
	C405.706726,277.440277 405.846680,271.948090 405.454468,266.492035 
	C405.090454,261.428864 405.706329,257.511292 410.352509,253.963898 
	C425.001923,242.778976 439.167114,230.960876 453.577881,219.460724 
	C454.732697,218.539169 456.332825,218.175568 457.726013,217.552658 
	C458.416107,219.140320 459.701630,220.725266 459.708862,222.316055 
	C459.875793,258.954773 459.910522,295.594116 459.916504,332.233337 
	C459.916656,333.127472 459.310028,334.021759 458.597046,335.009583 
z"/>
<path fill="#6D94BD" opacity="1.000000" stroke="none" 
	d="
M473.923157,267.940674 
	C473.751282,261.822845 473.579407,255.704971 474.147278,249.290039 
	C483.797241,248.328629 492.715485,247.754730 501.614502,246.964264 
	C506.538177,246.526917 511.423279,245.672058 516.337341,245.105972 
	C521.276062,244.537048 523.059143,241.654800 523.102112,236.923752 
	C523.116882,235.287674 524.299377,233.662186 524.948425,232.031860 
	C525.072571,233.171463 525.196716,234.311066 525.568420,235.682236 
	C525.853455,236.996063 525.890808,238.078308 525.510986,239.641388 
	C524.670166,245.059647 524.246521,249.997101 523.822876,254.934555 
	C523.808044,255.692093 523.793152,256.449615 523.369995,257.663666 
	C521.990540,259.407104 521.019409,260.694031 519.587646,261.986389 
	C512.898987,262.327881 506.639709,262.389435 500.453156,263.091797 
	C495.962708,263.601624 491.589844,265.073883 487.125366,265.906830 
	C482.750427,266.723114 478.325897,267.273560 473.923157,267.940674 
z"/>
<path fill="#698FBA" opacity="1.000000" stroke="none" 
	d="
M336.006165,314.487915 
	C339.713104,311.337616 343.420013,308.187286 347.822388,304.987396 
	C350.348633,303.949188 352.179382,302.960571 354.200867,302.321045 
	C355.081909,303.091003 355.785706,303.898712 356.460510,303.875183 
	C368.384918,303.459198 380.649963,306.089355 391.966858,300.513062 
	C391.961060,306.327667 391.953857,311.679779 391.594543,317.085358 
	C389.663391,317.987823 388.158112,319.036072 386.492981,319.652496 
	C377.436188,323.005615 367.856903,321.780914 358.652832,321.565857 
	C351.059082,321.388428 343.540680,317.988129 335.992340,315.759949 
	C335.999268,315.165283 336.002716,314.826599 336.006165,314.487915 
z"/>
<path fill="#587EA9" opacity="1.000000" stroke="none" 
	d="
M335.988892,316.015991 
	C343.540680,317.988129 351.059082,321.388428 358.652832,321.565857 
	C367.856903,321.780914 377.436188,323.005615 386.492981,319.652496 
	C388.158112,319.036072 389.663391,317.987823 391.824524,317.104004 
	C392.406647,317.069153 392.863678,317.013000 392.863678,317.013000 
	C392.887482,324.436462 392.911316,331.859894 392.734131,339.730591 
	C386.082550,339.474823 379.437256,339.509247 373.233643,337.871002 
	C366.394928,336.065063 359.728729,333.175537 353.417206,329.923798 
	C347.087341,326.662537 341.287384,322.372681 335.140198,317.931030 
	C335.346466,316.890900 335.667694,316.453461 335.988892,316.015991 
z"/>
<path fill="#4D719E" opacity="1.000000" stroke="none" 
	d="
M457.765564,305.060791 
	C457.813141,311.747284 457.860687,318.433746 457.496155,325.583679 
	C455.770020,326.503906 454.396057,327.480194 453.151276,327.336609 
	C441.563080,326.000031 430.007751,324.378265 418.419250,323.044678 
	C413.966339,322.532227 409.769897,322.144775 408.912140,316.505646 
	C408.827332,315.948181 407.794952,315.534851 407.147705,314.631165 
	C406.947815,313.369019 406.802643,312.530396 406.657440,311.691742 
	C406.678558,310.057037 406.699677,308.422363 407.170105,306.443298 
	C408.775208,307.610016 409.930939,309.121094 410.603729,310.000732 
	C420.091492,310.000732 429.205933,310.218597 438.304260,309.928864 
	C445.072937,309.713287 451.840912,308.920013 457.765564,305.060791 
z"/>
<path fill="#6389B4" opacity="1.000000" stroke="none" 
	d="
M473.662354,268.235413 
	C478.325897,267.273560 482.750427,266.723114 487.125366,265.906830 
	C491.589844,265.073883 495.962708,263.601624 500.453156,263.091797 
	C506.639709,262.389435 512.898987,262.327881 519.606812,262.323486 
	C519.080139,266.797302 518.073792,270.939453 517.067383,275.081604 
	C516.424927,276.498718 515.782471,277.915833 514.824585,279.860413 
	C514.379578,280.978516 514.249939,281.569183 514.120300,282.159821 
	C513.679626,282.749542 513.238953,283.339264 512.165894,283.869568 
	C506.763184,282.873077 502.018646,281.765472 497.216522,281.037781 
	C489.451691,279.861145 481.648956,278.934296 473.862244,277.901978 
	C473.708679,274.778046 473.555084,271.654114 473.662354,268.235413 
z"/>
<path fill="#80A4CB" opacity="1.000000" stroke="none" 
	d="
M391.965454,300.050507 
	C380.649963,306.089355 368.384918,303.459198 356.460510,303.875183 
	C355.785706,303.898712 355.081909,303.091003 354.346771,302.021576 
	C356.554382,298.981262 358.806824,296.589539 361.059235,294.197815 
	C361.424286,293.788452 361.789307,293.379059 362.815796,292.942505 
	C365.647461,291.447266 367.892395,290.077454 369.974396,288.493500 
	C377.572632,282.712799 385.116516,276.860596 392.680878,271.035339 
	C392.787720,277.735626 392.894531,284.435913 392.665283,291.891296 
	C392.207916,295.114410 392.086670,297.582458 391.965454,300.050507 
z"/>
<path fill="#587EA9" opacity="1.000000" stroke="none" 
	d="
M457.835388,304.661438 
	C451.840912,308.920013 445.072937,309.713287 438.304260,309.928864 
	C429.205933,310.218597 420.091492,310.000732 410.603729,310.000732 
	C409.930939,309.121094 408.775208,307.610016 407.255005,306.041565 
	C406.833618,302.620758 406.776703,299.257294 407.197021,295.454407 
	C411.194427,298.555695 415.215637,298.195526 419.730560,297.218811 
	C422.696228,296.577271 425.973755,297.463348 429.114441,297.528259 
	C438.411194,297.720367 447.709320,297.844421 457.006927,297.995117 
	C457.306335,300.084106 457.605774,302.173096 457.835388,304.661438 
z"/>
<path fill="#6389B4" opacity="1.000000" stroke="none" 
	d="
M457.016785,297.545898 
	C447.709320,297.844421 438.411194,297.720367 429.114441,297.528259 
	C425.973755,297.463348 422.696228,296.577271 419.730560,297.218811 
	C415.215637,298.195526 411.194427,298.555695 407.273926,295.000549 
	C406.801880,294.569489 406.730164,294.152832 406.675476,293.418274 
	C407.129181,290.365753 407.565887,287.631134 408.374725,284.492706 
	C411.362152,285.016571 413.916016,286.446411 416.604492,286.775146 
	C423.883728,287.665039 431.211517,288.243530 438.536499,288.646759 
	C444.676025,288.984772 450.838745,288.901581 456.991150,289.004883 
	C457.002991,291.702148 457.014832,294.399445 457.016785,297.545898 
z"/>
<path fill="#587EA9" opacity="1.000000" stroke="none" 
	d="
M473.611786,278.197632 
	C481.648956,278.934296 489.451691,279.861145 497.216522,281.037781 
	C502.018646,281.765472 506.763184,282.873077 511.895447,283.957520 
	C512.214722,284.528992 512.172119,284.953033 511.687805,285.714050 
	C509.861969,287.400085 508.477783,288.749207 506.869019,289.829834 
	C495.918671,291.792114 485.192902,294.022888 475.354645,296.069031 
	C473.964905,298.240601 473.072021,299.635773 472.179138,301.030945 
	C472.573181,293.518402 472.967255,286.005859 473.611786,278.197632 
z"/>
<path fill="#7A8FAB" opacity="1.000000" stroke="none" 
	d="
M168.892365,303.533081 
	C169.710953,303.539978 170.749420,303.678070 171.448334,304.239166 
	C198.643250,326.071838 225.789352,347.965271 252.980804,369.802307 
	C274.737823,387.274933 296.549438,404.679596 318.315887,422.140533 
	C319.341522,422.963318 320.163391,424.040100 321.144958,425.320557 
	C316.386261,422.260132 311.368622,419.121490 306.769531,415.457458 
	C264.545990,381.818726 222.375183,348.113647 180.255341,314.345154 
	C176.256699,311.139343 172.710251,307.369537 168.892365,303.533081 
z"/>
<path fill="#7A8FAB" opacity="1.000000" stroke="none" 
	d="
M321.343994,426.121246 
	C324.609924,426.884766 327.800110,428.471497 331.157990,429.007294 
	C339.134308,430.280029 344.498444,424.847839 349.981415,420.503937 
	C371.713684,403.286438 393.252655,385.825104 414.885376,368.481750 
	C427.051239,358.728149 439.254303,349.020905 451.464355,339.322723 
	C452.221710,338.721222 453.187225,338.381836 454.403015,337.892853 
	C454.052948,338.936035 453.574982,340.281586 452.626953,341.038025 
	C417.525238,369.046417 382.407196,397.034637 347.203857,424.915131 
	C343.105133,428.161255 338.821075,431.175049 332.987793,431.067657 
	C328.364288,430.982605 324.510071,429.820557 321.343994,426.121246 
z"/>
<path fill="#7A8FAB" opacity="1.000000" stroke="none" 
	d="
M220.685120,225.873138 
	C214.823364,221.962433 208.815094,217.924362 203.162018,213.438675 
	C182.666168,197.175201 162.290817,180.759918 141.861160,164.412964 
	C141.255646,163.928482 140.551773,163.566925 138.740494,162.413925 
	C138.740494,180.019821 138.740494,196.668564 138.492065,213.642151 
	C138.020813,211.857666 137.615204,209.749222 137.604843,207.638840 
	C137.537964,194.009735 137.540161,180.380157 137.567978,166.750839 
	C137.571930,164.816437 137.837967,162.882553 138.078720,159.665207 
	C141.471832,162.252090 144.041321,164.141296 146.536392,166.124130 
	C170.443192,185.122574 194.339722,204.133972 218.226379,223.157715 
	C219.118271,223.868011 219.879456,224.742447 220.685120,225.873138 
z"/>
<path fill="#7A8FAB" opacity="1.000000" stroke="none" 
	d="
M329.907227,314.665283 
	C328.319183,314.040588 326.443970,313.317719 324.960266,312.112793 
	C300.342590,292.120941 275.756561,272.089935 251.202881,252.019485 
	C241.061020,243.729416 231.012054,235.325714 220.864685,226.646988 
	C226.626465,230.610611 232.610092,234.695236 238.234604,239.225723 
	C267.726471,262.980988 297.133636,286.841431 326.538361,310.704620 
	C327.787659,311.718536 328.721436,313.121216 329.907227,314.665283 
z"/>
<path fill="#406492" opacity="1.000000" stroke="none" 
	d="
M474.171631,322.759888 
	C473.348206,321.167236 472.265778,319.320770 472.102570,317.396362 
	C471.809875,313.944885 472.069885,310.446503 472.592224,306.491394 
	C476.678192,306.011200 480.291809,305.770538 483.856171,306.085999 
	C486.265472,306.299286 488.605499,307.295715 490.686859,308.109711 
	C486.238068,312.106262 482.078949,315.934967 477.919800,319.763672 
	C476.722137,320.666107 475.524506,321.568542 474.171631,322.759888 
z"/>
<path fill="#7A8FAB" opacity="1.000000" stroke="none" 
	d="
M138.334564,240.250549 
	C139.227386,241.567535 140.402939,243.274902 140.632385,245.101151 
	C143.336777,266.626770 152.183640,285.107758 167.611649,300.411133 
	C168.169098,300.964111 168.465561,301.780182 168.839813,302.824890 
	C160.477402,297.029266 154.603500,288.825836 149.818832,279.864288 
	C143.289917,267.635742 138.522797,254.801651 138.334564,240.250549 
z"/>
<path fill="#80A4CB" opacity="1.000000" stroke="none" 
	d="
M478.282776,319.739990 
	C482.078949,315.934967 486.238068,312.106262 491.000793,307.998810 
	C496.767426,301.846161 501.930511,295.972229 507.093597,290.098328 
	C508.477783,288.749207 509.861969,287.400085 511.563599,286.008911 
	C509.859680,289.265717 508.345032,293.054321 505.720276,295.769989 
	C498.408600,303.334869 490.680908,310.502197 482.996429,317.697174 
	C481.887878,318.735138 480.112549,319.060944 478.282776,319.739990 
z"/>
<path fill="#85A9D0" opacity="1.000000" stroke="none" 
	d="
M406.336670,311.908264 
	C406.802643,312.530396 406.947815,313.369019 407.097412,315.092468 
	C407.138672,323.011047 407.175537,330.044830 407.212402,337.078583 
	C406.317413,339.467773 405.607513,343.789337 404.493927,343.895966 
	C400.635773,344.265411 396.138672,345.758942 392.809540,341.594757 
	C405.134583,343.782227 405.234680,343.630035 405.306030,331.270630 
	C405.342896,324.887512 405.766815,318.506653 406.336670,311.908264 
z"/>
<path fill="#85A9D0" opacity="1.000000" stroke="none" 
	d="
M392.723175,270.707092 
	C385.116516,276.860596 377.572632,282.712799 369.974396,288.493500 
	C367.892395,290.077454 365.647461,291.447266 363.102173,292.903107 
	C366.595001,289.406464 370.370483,285.812042 374.354279,282.465637 
	C379.258453,278.346161 384.285919,274.366699 389.395508,270.505920 
	C390.130920,269.950195 391.623352,270.396332 392.723175,270.707092 
z"/>
<path fill="#85A9D0" opacity="1.000000" stroke="none" 
	d="
M391.966858,300.513062 
	C392.086670,297.582458 392.207916,295.114410 392.588959,292.358948 
	C393.050079,300.189087 393.251373,308.306641 393.158173,316.718628 
	C392.863678,317.013000 392.406647,317.069153 392.176636,317.050507 
	C391.953857,311.679779 391.961060,306.327667 391.966858,300.513062 
z"/>
<path fill="#87AAD1" opacity="1.000000" stroke="none" 
	d="
M517.396606,274.960358 
	C518.073792,270.939453 519.080139,266.797302 520.067383,262.318054 
	C521.019409,260.694031 521.990540,259.407104 523.244263,258.023071 
	C521.593140,263.563690 519.659546,269.201385 517.396606,274.960358 
z"/>
<path fill="#87AAD1" opacity="1.000000" stroke="none" 
	d="
M524.146301,254.724396 
	C524.246521,249.997101 524.670166,245.059647 525.436096,240.040771 
	C525.342224,244.810974 524.906006,249.662613 524.146301,254.724396 
z"/>
<path fill="#85A9D0" opacity="1.000000" stroke="none" 
	d="
M360.713074,294.193298 
	C358.806824,296.589539 356.554382,298.981262 354.156067,301.672424 
	C352.179382,302.960571 350.348633,303.949188 348.153442,304.906799 
	C351.981659,301.313446 356.174316,297.751099 360.713074,294.193298 
z"/>
<path fill="#7A8FAB" opacity="1.000000" stroke="none" 
	d="
M335.992340,315.759979 
	C335.667694,316.453461 335.346466,316.890900 335.014099,317.611023 
	C333.459106,317.114899 331.915283,316.336060 330.190216,315.272308 
	C331.756409,314.797760 333.503784,314.608124 335.628662,314.453186 
	C336.002716,314.826599 335.999268,315.165283 335.992340,315.759979 
z"/>
<path fill="#80A4CB" opacity="1.000000" stroke="none" 
	d="
M514.343872,282.032684 
	C514.249939,281.569183 514.379578,280.978516 514.761353,280.198120 
	C514.864746,280.640747 514.716064,281.273163 514.343872,282.032684 
z"/>
<path fill="#7A8FAB" opacity="1.000000" stroke="none" 
	d="
M138.075043,225.169708 
	C138.403259,225.582733 138.541046,226.139343 138.475021,226.832275 
	C138.142334,226.416824 138.013474,225.865067 138.075043,225.169708 
z"/>
<path fill="#406492" opacity="1.000000" stroke="none" 
	d="
M407.559753,337.145142 
	C407.175537,330.044830 407.138672,323.011047 407.152100,315.515991 
	C407.794952,315.534851 408.827332,315.948181 408.912140,316.505646 
	C409.769897,322.144775 413.966339,322.532227 418.419250,323.044678 
	C430.007751,324.378265 441.563080,326.000031 453.151276,327.336609 
	C454.396057,327.480194 455.770020,326.503906 457.422119,326.049927 
	C457.798981,328.449036 457.837738,330.845245 457.736877,333.679291 
	C449.821991,336.211517 442.140839,338.832703 434.243469,340.244049 
	C427.131042,341.515167 419.781952,341.750122 412.536530,341.757965 
	C410.995026,341.759644 409.450348,338.804565 407.559753,337.145142 
z"/>

<path fill="#24446F" opacity="1.000000" stroke="none" 
	d="
M1353.987427,193.152283 
	C1353.986572,256.185425 1353.986572,318.738525 1353.986572,381.291626 
	C1353.532959,381.291229 1353.079224,381.290833 1352.625610,381.290436 
	C1352.625610,316.431335 1352.625610,251.572205 1352.625610,186.713074 
	C1353.079834,186.690582 1353.534058,186.668076 1353.988281,186.645584 
	C1353.988281,188.654465 1353.988281,190.663345 1353.987427,193.152283 
z"/>
<path fill="#779DC6" opacity="1.000000" stroke="none" 
	d="
M524.964966,231.560150 
	C524.299377,233.662186 523.116882,235.287674 523.102112,236.923752 
	C523.059143,241.654800 521.276062,244.537048 516.337341,245.105972 
	C511.423279,245.672058 506.538177,246.526917 501.614502,246.964264 
	C492.715485,247.754730 483.797241,248.328629 474.429901,248.984436 
	C473.972778,241.596893 473.972778,234.217865 473.972778,226.270325 
	C483.996735,230.231277 493.797424,229.686539 503.531342,227.912079 
	C509.007141,226.913849 514.421509,225.318924 519.655701,223.419922 
	C521.142883,222.880371 522.417053,220.456909 522.860718,218.667282 
	C523.409851,216.452560 522.992188,213.998123 522.992188,211.647247 
	C523.655273,211.648834 524.318359,211.650421 524.981445,211.652008 
	C524.981445,218.130814 524.981445,224.609619 524.964966,231.560150 
z"/>
<path fill="#4D719E" opacity="1.000000" stroke="none" 
	d="
M506.869019,289.829834 
	C501.930511,295.972229 496.767426,301.846161 491.290405,307.830963 
	C488.605499,307.295715 486.265472,306.299286 483.856171,306.085999 
	C480.291809,305.770538 476.678192,306.011200 472.637054,306.029785 
	C472.156952,304.650665 472.125397,303.256836 472.136475,301.446960 
	C473.072021,299.635773 473.964905,298.240601 475.354645,296.069031 
	C485.192902,294.022888 495.918671,291.792114 506.869019,289.829834 
z"/>
<path fill="#7299C3" opacity="1.000000" stroke="none" 
	d="
M456.999817,288.535889 
	C450.838745,288.901581 444.676025,288.984772 438.536499,288.646759 
	C431.211517,288.243530 423.883728,287.665039 416.604492,286.775146 
	C413.916016,286.446411 411.362152,285.016571 408.377838,284.048737 
	C408.008820,280.581146 408.008820,277.153748 408.008820,274.517517 
	C414.570099,274.205902 421.177551,275.474121 426.271881,273.260345 
	C433.044617,270.317230 439.600769,270.044495 446.522217,269.953491 
	C449.721954,269.911407 452.915955,269.436127 457.008453,269.079071 
	C457.008453,275.022705 457.008453,281.544769 456.999817,288.535889 
z"/>
</svg>